<svg xmlns="http://www.w3.org/2000/svg" viewBox="0 0 53 53"><defs><style>.cls-1{fill:#1b3249;}</style></defs><title>Asset 31</title><g id="Layer_2" data-name="Layer 2"><g id="_1" data-name="1"><path class="cls-1" d="M26.5,48h-6a.5.5,0,0,1,0-1H26V38H1v5.5A3.5,3.5,0,0,0,4.5,47h2a.5.5,0,0,1,0,1h-2A4.51,4.51,0,0,1,0,43.5v-6A.5.5,0,0,1,.5,37h26a.5.5,0,0,1,.5.5v10A.5.5,0,0,1,26.5,48Z"/><path class="cls-1" d="M2.94,42H.5a.5.5,0,0,1-.5-.5v-4a.47.47,0,0,1,.15-.35A.47.47,0,0,1,.5,37h5a.49.49,0,0,1,.39.19.51.51,0,0,1,.1.43l-.63,2.49A2.49,2.49,0,0,1,2.94,42ZM1,41H2.94a1.49,1.49,0,0,0,1.45-1.14L4.86,38H1Z"/><path class="cls-1" d="M13.5,53A5.5,5.5,0,1,1,19,47.5,5.51,5.51,0,0,1,13.5,53Zm0-10A4.5,4.5,0,1,0,18,47.5,4.51,4.51,0,0,0,13.5,43Z"/><path class="cls-1" d="M13.5,50A2.5,2.5,0,1,1,16,47.5,2.5,2.5,0,0,1,13.5,50Zm0-4A1.5,1.5,0,1,0,15,47.5,1.5,1.5,0,0,0,13.5,46Z"/><path class="cls-1" d="M49.05,48H47.5a.5.5,0,0,1,0-1h1.55a1.9,1.9,0,0,0,1.37-.57l1-1A1.9,1.9,0,0,0,52,44.05V36.78a3.5,3.5,0,0,0-2.81-3.43L34.81,30.47A3.5,3.5,0,0,1,32,27V18H28.5A1.5,1.5,0,0,0,27,19.5V47h6.5a.5.5,0,0,1,0,1h-7a.5.5,0,0,1-.5-.5v-28A2.5,2.5,0,0,1,28.5,17h4a.5.5,0,0,1,.5.5V27a2.51,2.51,0,0,0,2,2.45l14.37,2.88A4.51,4.51,0,0,1,53,36.78v7.27a2.93,2.93,0,0,1-.86,2.08l-1,1A2.94,2.94,0,0,1,49.05,48Z"/><path class="cls-1" d="M47.12,32.92H47L34.81,30.47A3.5,3.5,0,0,1,32,27V17.5a.5.5,0,0,1,.5-.5h4a5.39,5.39,0,0,1,4.82,3c1.53,3,6.24,12.11,6.29,12.2a.5.5,0,0,1,0,.54A.5.5,0,0,1,47.12,32.92ZM33,18v9a2.51,2.51,0,0,0,2,2.45h0L46.2,31.73c-1.25-2.4-4.57-8.83-5.82-11.29A4.36,4.36,0,0,0,36.46,18Z"/><path class="cls-1" d="M52.5,42H49.35a3.49,3.49,0,0,1-3.13-1.93l-1.17-2.35a.51.51,0,0,1,0-.48A.52.52,0,0,1,45.5,37h7a.5.5,0,0,1,.5.5v4A.5.5,0,0,1,52.5,42Zm-6.19-4,.81,1.62A2.48,2.48,0,0,0,49.35,41H52V38Z"/><path class="cls-1" d="M40.5,53A5.5,5.5,0,1,1,46,47.5,5.51,5.51,0,0,1,40.5,53Zm0-10A4.5,4.5,0,1,0,45,47.5,4.51,4.51,0,0,0,40.5,43Z"/><path class="cls-1" d="M40.5,50A2.5,2.5,0,1,1,43,47.5,2.5,2.5,0,0,1,40.5,50Zm0-4A1.5,1.5,0,1,0,42,47.5,1.5,1.5,0,0,0,40.5,46Z"/><path class="cls-1" d="M40.31,34.56h-.1l-5.4-1.08a.5.5,0,0,1-.39-.59.51.51,0,0,1,.59-.39l5.4,1.08a.5.5,0,0,1,.39.59A.49.49,0,0,1,40.31,34.56Z"/><path class="cls-1" d="M26.5,38H.5a.5.5,0,0,1-.5-.5v-25A1.5,1.5,0,0,1,1.5,11h24A1.5,1.5,0,0,1,27,12.5v25A.5.5,0,0,1,26.5,38ZM1,37H26V12.5a.5.5,0,0,0-.5-.5H1.5a.5.5,0,0,0-.5.5Z"/><path class="cls-1" d="M20.5,19a.5.5,0,0,1-.5-.5V4.5A3.5,3.5,0,0,0,16.5,1h-6A3.5,3.5,0,0,0,7,4.5v14a.5.5,0,0,1-1,0V4.5A4.51,4.51,0,0,1,10.5,0h6A4.51,4.51,0,0,1,21,4.5v14A.5.5,0,0,1,20.5,19Z"/></g></g></svg>