<svg xmlns="http://www.w3.org/2000/svg" viewBox="0 0 53 53"><defs><style>.cls-1{fill:#1b3249;}</style></defs><title>Asset 41</title><g id="Layer_2" data-name="Layer 2"><g id="_1" data-name="1"><path class="cls-1" d="M30.5,53H4.5A4.51,4.51,0,0,1,0,48.5v-33A1.5,1.5,0,0,1,1.5,14h36A1.5,1.5,0,0,1,39,15.5v7a.5.5,0,0,1-1,0v-7a.5.5,0,0,0-.5-.5H1.5a.5.5,0,0,0-.5.5v33A3.5,3.5,0,0,0,4.5,52h26a.5.5,0,0,1,0,1Z"/><path class="cls-1" d="M29.5,24.5a3,3,0,1,1,3-3A3,3,0,0,1,29.5,24.5Zm0-5a2,2,0,1,0,2,2A2,2,0,0,0,29.5,19.5Z"/><path class="cls-1" d="M9.5,24.5a3,3,0,1,1,3-3A3,3,0,0,1,9.5,24.5Zm0-5a2,2,0,1,0,2,2A2,2,0,0,0,9.5,19.5Z"/><path class="cls-1" d="M29.5,21a.5.5,0,0,1-.5-.5V5.5A4.51,4.51,0,0,0,24.5,1h-10A4.51,4.51,0,0,0,10,5.5v15a.5.5,0,0,1-1,0V5.5A5.51,5.51,0,0,1,14.5,0h10A5.51,5.51,0,0,1,30,5.5v15A.5.5,0,0,1,29.5,21Z"/><path class="cls-1" d="M38.5,53c-.86,0-1.49-.72-2.09-1.41a3.17,3.17,0,0,0-1.15-1,3.32,3.32,0,0,0-1.56.3,3,3,0,0,1-2.45.18c-.73-.42-.91-1.35-1.09-2.24a3.36,3.36,0,0,0-.5-1.48,3.36,3.36,0,0,0-1.48-.5c-.89-.18-1.82-.36-2.24-1.09a3.07,3.07,0,0,1,.18-2.46,3.26,3.26,0,0,0,.3-1.55,3.17,3.17,0,0,0-1-1.15C24.72,40,24,39.36,24,38.5s.72-1.49,1.41-2.09a3.17,3.17,0,0,0,1-1.15,3.32,3.32,0,0,0-.3-1.56,3,3,0,0,1-.18-2.45c.42-.73,1.35-.91,2.24-1.09a3.36,3.36,0,0,0,1.48-.5,3.36,3.36,0,0,0,.5-1.48c.18-.89.36-1.82,1.09-2.24a3.07,3.07,0,0,1,2.46.18,3.26,3.26,0,0,0,1.55.3,3.17,3.17,0,0,0,1.15-1C37,24.72,37.64,24,38.5,24s1.49.72,2.09,1.41a3.17,3.17,0,0,0,1.15,1,3.32,3.32,0,0,0,1.56-.3,3,3,0,0,1,2.45-.18c.73.42.91,1.35,1.09,2.24a3.36,3.36,0,0,0,.5,1.48,3.36,3.36,0,0,0,1.48.5c.89.18,1.82.36,2.24,1.09a3.07,3.07,0,0,1-.18,2.46,3.26,3.26,0,0,0-.3,1.55,3.17,3.17,0,0,0,1,1.15C52.28,37,53,37.64,53,38.5s-.72,1.49-1.41,2.09a3.17,3.17,0,0,0-1,1.15,3.32,3.32,0,0,0,.3,1.56,3,3,0,0,1,.18,2.45c-.42.73-1.35.91-2.24,1.09a3.36,3.36,0,0,0-1.48.5,3.36,3.36,0,0,0-.5,1.48c-.18.89-.36,1.82-1.09,2.24a3.07,3.07,0,0,1-2.46-.18,3.26,3.26,0,0,0-1.55-.3,3.17,3.17,0,0,0-1.15,1C40,52.28,39.36,53,38.5,53Zm-3.45-3.45a1.84,1.84,0,0,1,.47.06,3.71,3.71,0,0,1,1.64,1.32c.44.5.93,1.07,1.34,1.07s.9-.57,1.34-1.07a3.71,3.71,0,0,1,1.64-1.32,3.84,3.84,0,0,1,2.14.33c.61.2,1.31.44,1.63.25s.48-.92.61-1.56a3.77,3.77,0,0,1,.77-2,3.77,3.77,0,0,1,2-.77c.64-.13,1.37-.27,1.56-.61s0-1-.25-1.63a3.84,3.84,0,0,1-.33-2.14,3.71,3.71,0,0,1,1.32-1.64c.5-.44,1.07-.93,1.07-1.34s-.57-.9-1.07-1.34a3.71,3.71,0,0,1-1.32-1.64,3.84,3.84,0,0,1,.33-2.14c.2-.61.44-1.31.25-1.63s-.92-.48-1.56-.61a3.77,3.77,0,0,1-2-.77,3.77,3.77,0,0,1-.77-2c-.13-.64-.27-1.37-.61-1.56s-1,.05-1.63.25a3.84,3.84,0,0,1-2.14.33,3.71,3.71,0,0,1-1.64-1.32c-.44-.5-.93-1.07-1.34-1.07s-.9.57-1.34,1.07a3.71,3.71,0,0,1-1.64,1.32,3.84,3.84,0,0,1-2.14-.33c-.61-.2-1.31-.44-1.63-.25s-.48.92-.61,1.56a3.77,3.77,0,0,1-.77,2,3.77,3.77,0,0,1-2,.77c-.64.13-1.37.27-1.56.61s.05,1,.25,1.63a3.84,3.84,0,0,1,.33,2.14,3.71,3.71,0,0,1-1.32,1.64c-.5.44-1.07.93-1.07,1.34s.57.9,1.07,1.34a3.71,3.71,0,0,1,1.32,1.64,3.84,3.84,0,0,1-.33,2.14c-.2.61-.44,1.31-.25,1.63s.92.48,1.56.61a3.77,3.77,0,0,1,2,.77,3.77,3.77,0,0,1,.77,2c.13.64.27,1.37.61,1.56s1,0,1.63-.25A5.46,5.46,0,0,1,35.05,49.55Z"/><path class="cls-1" d="M38.5,47a8.5,8.5,0,0,1,0-17,8.38,8.38,0,0,1,5.23,1.8.5.5,0,1,1-.61.79A7.5,7.5,0,1,0,46,38.5a.5.5,0,0,1,1,0A8.51,8.51,0,0,1,38.5,47Z"/><path class="cls-1" d="M38.1,42.66a.52.52,0,0,1-.36-.14L34.17,39a.51.51,0,0,1,0-.71.5.5,0,0,1,.71,0l3.22,3.22,7.09-7.1a.5.5,0,0,1,.71,0,.48.48,0,0,1,0,.7l-7.45,7.46A.5.5,0,0,1,38.1,42.66Z"/></g></g></svg>