<svg xmlns="http://www.w3.org/2000/svg" viewBox="0 0 53 53"><defs><style>.cls-1{fill:#1b3249;}</style></defs><title>Asset 81</title><g id="Layer_2" data-name="Layer 2"><g id="_1" data-name="1"><path class="cls-1" d="M26.5,53c-9.16,0-16.39-2.18-20.35-6.15h0C2.18,42.89,0,35.66,0,26.5,0,17.07,2.07,10.22,6.15,6.15S17.34,0,26.5,0,42.89,2.18,46.85,6.15,53,17.34,53,26.5c0,11.74-3.34,17.55-6.15,20.35C42.89,50.82,35.66,53,26.5,53ZM6.85,46.15C10.63,49.92,17.61,52,26.5,52s15.87-2.08,19.65-5.85S52,35.39,52,26.5,49.92,10.63,46.15,6.85,35.4,1,26.5,1,10.63,3.08,6.85,6.85,1,17.35,1,26.5c0,8.89,2.08,15.87,5.85,19.65Z"/><path class="cls-1" d="M34.27,46A4.94,4.94,0,0,1,33,45.82C21.62,42.7,10.3,31.38,7.18,20.05a5.14,5.14,0,0,1,1.33-5l3.38-3.37a2.51,2.51,0,0,1,3.47,0L20,16.33a2.45,2.45,0,0,1,0,3.47l-2.54,2.55a.64.64,0,0,0-.19.58c1.24,5.6,7.23,11.59,12.83,12.83a.64.64,0,0,0,.58-.19L33.2,33a2.45,2.45,0,0,1,3.47,0l4.61,4.61h0a2.45,2.45,0,0,1,0,3.47l-3.37,3.38A5.16,5.16,0,0,1,34.27,46ZM13.62,12a1.41,1.41,0,0,0-1,.43L9.22,15.8a4.14,4.14,0,0,0-1.08,4c3,11,14.05,22,25.07,25.07a4.12,4.12,0,0,0,4-1.08l3.37-3.38a1.44,1.44,0,0,0,0-2L36,33.74a1.44,1.44,0,0,0-2.05,0l-2.55,2.54a1.64,1.64,0,0,1-1.51.45c-5.92-1.31-12.27-7.65-13.58-13.58a1.64,1.64,0,0,1,.45-1.51l2.55-2.55a1.46,1.46,0,0,0,0-2.05l-4.62-4.61A1.41,1.41,0,0,0,13.62,12Z"/><path class="cls-1" d="M34.5,27a.5.5,0,0,1-.5-.5A7.5,7.5,0,0,0,26.5,19a.5.5,0,0,1,0-1A8.51,8.51,0,0,1,35,26.5.5.5,0,0,1,34.5,27Z"/><path class="cls-1" d="M39.5,27a.5.5,0,0,1-.5-.5A12.52,12.52,0,0,0,26.5,14a.5.5,0,0,1,0-1A13.52,13.52,0,0,1,40,26.5.5.5,0,0,1,39.5,27Z"/><path class="cls-1" d="M44.5,27a.5.5,0,0,1-.5-.5A17.52,17.52,0,0,0,26.5,9a.5.5,0,0,1,0-1A18.52,18.52,0,0,1,45,26.5.5.5,0,0,1,44.5,27Z"/></g></g></svg>