<svg xmlns="http://www.w3.org/2000/svg" viewBox="0 0 53 53"><defs><style>.cls-1{fill:#1b3249;}</style></defs><title>Asset 111</title><g id="Layer_2" data-name="Layer 2"><g id="_1" data-name="1"><path class="cls-1" d="M38.9,53H3.5A3.5,3.5,0,0,1,0,49.5V3.5A3.5,3.5,0,0,1,3.5,0h34A3.5,3.5,0,0,1,41,3.5v10a.5.5,0,0,1-1,0V3.5A2.5,2.5,0,0,0,37.5,1H3.5A2.5,2.5,0,0,0,1,3.5v46A2.5,2.5,0,0,0,3.5,52H38.9a.5.5,0,1,1,0,1Z"/><path class="cls-1" d="M38.5,9H2.5a.5.5,0,0,1,0-1h36a.5.5,0,0,1,0,1Z"/><circle class="cls-1" cx="4.5" cy="4.5" r="1"/><circle class="cls-1" cx="8.5" cy="4.5" r="1"/><circle class="cls-1" cx="12.5" cy="4.5" r="1"/><path class="cls-1" d="M47.5,38a.5.5,0,0,1,0-1A1.5,1.5,0,0,0,49,35.5v-18A1.5,1.5,0,0,0,47.5,16H9.5A1.5,1.5,0,0,0,8,17.5v18A1.5,1.5,0,0,0,9.5,37H33.25a.5.5,0,0,1,0,1H9.5A2.5,2.5,0,0,1,7,35.5v-18A2.5,2.5,0,0,1,9.5,15h38A2.5,2.5,0,0,1,50,17.5v18A2.5,2.5,0,0,1,47.5,38Z"/><path class="cls-1" d="M18.5,33h-4a.5.5,0,0,1-.5-.5v-6a.5.5,0,0,1,.5-.5h4a3.5,3.5,0,0,1,0,7ZM15,32h3.5a2.5,2.5,0,0,0,0-5H15Z"/><path class="cls-1" d="M28,33a3.5,3.5,0,0,1-3.5-3.5v-9a.5.5,0,0,1,1,0v9a2.5,2.5,0,0,0,5,0v-9a.5.5,0,0,1,1,0v9A3.5,3.5,0,0,1,28,33Z"/><path class="cls-1" d="M17.5,27h-3a.5.5,0,0,1-.5-.5v-6a.5.5,0,0,1,.5-.5h3a3.5,3.5,0,0,1,0,7ZM15,26h2.5a2.5,2.5,0,0,0,0-5H15Z"/><path class="cls-1" d="M41.9,53h0a.5.5,0,0,1-.45-.32l-6.4-17a.51.51,0,0,1,.65-.65l17,6.4a.5.5,0,0,1,.32.45.52.52,0,0,1-.29.48L45.6,45.6l-3.24,7.11A.51.51,0,0,1,41.9,53ZM36.36,36.36,42,51.2,44.77,45a.51.51,0,0,1,.25-.25L51.2,42Z"/><path class="cls-1" d="M38.5,25a.47.47,0,0,1-.35-.15l-4-4a.49.49,0,0,1,.7-.7l3.65,3.64,3.65-3.64a.49.49,0,0,1,.7.7l-4,4A.47.47,0,0,1,38.5,25Z"/><path class="cls-1" d="M38.5,33a.5.5,0,0,1-.5-.5v-8a.5.5,0,0,1,1,0v8A.5.5,0,0,1,38.5,33Z"/></g></g></svg>