<svg xmlns="http://www.w3.org/2000/svg" viewBox="0 0 53 53"><defs><style>.cls-1{fill:#1b3249;}</style></defs><title>Asset 231</title><g id="Layer_2" data-name="Layer 2"><g id="_1" data-name="1"><path class="cls-1" d="M20.5,33H2.5A2.5,2.5,0,0,1,0,30.5V2.5A2.5,2.5,0,0,1,2.5,0h42A2.5,2.5,0,0,1,47,2.5V18.1a.5.5,0,0,1-1,0V2.5A1.5,1.5,0,0,0,44.5,1H2.5A1.5,1.5,0,0,0,1,2.5v28A1.5,1.5,0,0,0,2.5,32h18a.5.5,0,0,1,0,1Z"/><path class="cls-1" d="M46.5,14H.5a.5.5,0,0,1-.5-.5v-6A.5.5,0,0,1,.5,7h46a.5.5,0,0,1,.5.5v6A.5.5,0,0,1,46.5,14ZM1,13H46V8H1Z"/><path class="cls-1" d="M19.5,23h-5a.5.5,0,0,1,0-1h5a.5.5,0,0,1,0,1Z"/><path class="cls-1" d="M11.5,23h-7a.5.5,0,0,1,0-1h7a.5.5,0,0,1,0,1Z"/><path class="cls-1" d="M15.5,27H4.5a.5.5,0,0,1,0-1h11a.5.5,0,0,1,0,1Z"/><path class="cls-1" d="M5.5,19h-1a.5.5,0,0,1,0-1h1a.5.5,0,0,1,0,1Z"/><path class="cls-1" d="M9.5,19h-1a.5.5,0,0,1,0-1h1a.5.5,0,0,1,0,1Z"/><path class="cls-1" d="M13.5,19h-1a.5.5,0,0,1,0-1h1a.5.5,0,0,1,0,1Z"/><path class="cls-1" d="M17.5,19h-1a.5.5,0,0,1,0-1h1a.5.5,0,0,1,0,1Z"/><path class="cls-1" d="M21.5,19h-1a.5.5,0,0,1,0-1h1a.5.5,0,0,1,0,1Z"/><path class="cls-1" d="M25.5,19h-1a.5.5,0,0,1,0-1h1a.5.5,0,0,1,0,1Z"/><path class="cls-1" d="M37.5,53a.54.54,0,0,1-.22,0c-.54-.27-1.15-.55-1.81-.86C30.11,49.6,22,45.84,22,37.79V22.5a.49.49,0,0,1,.31-.46l15-6a.5.5,0,0,1,.38,0l15,6a.49.49,0,0,1,.31.46V37.79c0,8.05-8.11,11.81-13.47,14.31-.66.3-1.27.58-1.81.85A.54.54,0,0,1,37.5,53ZM23,22.84v15c0,7.41,7.76,11,12.89,13.4.58.26,1.12.51,1.61.75l1.6-.75c5.14-2.39,12.9-6,12.9-13.4V22.84L37.5,17Z"/><path class="cls-1" d="M37.5,44A10.5,10.5,0,1,1,48,33.5,10.51,10.51,0,0,1,37.5,44Zm0-20A9.5,9.5,0,1,0,47,33.5,9.51,9.51,0,0,0,37.5,24Z"/><path class="cls-1" d="M40,39.5H35a1,1,0,0,1-.85-.44,1,1,0,0,1-.14-.94l1.26-3.79a3.79,3.79,0,0,1-1.47-3.74,3.84,3.84,0,0,1,3.05-3A3.81,3.81,0,0,1,41.3,31.3a3.72,3.72,0,0,1-1.53,3L41,38.12a1,1,0,0,1-.14.94A1,1,0,0,1,40,39.5Zm-2.53-11a2.38,2.38,0,0,0-.53.05,2.79,2.79,0,0,0-.9,5.15.51.51,0,0,1,.22.59l-1.38,4.14L40,38.5,38.7,34.29a.51.51,0,0,1,.22-.59,2.78,2.78,0,0,0,1.38-2.4,2.83,2.83,0,0,0-1-2.15A2.76,2.76,0,0,0,37.51,28.5Z"/></g></g></svg>